# xmcd
#
# Track frame offsets:
#	182
#	17475
#	40647
#	61030
#	80685
#	101792
#	119760
#	141607
#	157125
#
# Disc length: 2318 seconds
#
# Revision: 6
# Processed by: cddbd v1.5PL3 Copyright (c) Steve Scherf et al.
# Submitted via: MusicWizard 7.0.2
#
DISCID=7b090c09
DTITLE=Marla Glen - This Is Marla Glen
DYEAR=1900
DGENRE=Blues
TTITLE0=The Cost Of Freedom
TTITLE1=Believer
TTITLE2=Destiny (To Get Up Again)
TTITLE3=Enough
TTITLE4=Personal
TTITLE5=Control
TTITLE6=Travel
TTITLE7=Feet On The Ground
TTITLE8=You Hurt Me
EXTD=ID3G:   0
EXTT0=
EXTT1=
EXTT2=
EXTT3=
EXTT4=
EXTT5=
EXTT6=
EXTT7=
EXTT8=
PLAYORDER=
